<mxfile host="app.diagrams.net" modified="2023-10-20T17:00:39.706Z" agent="Mozilla/5.0 (X11; Linux x86_64) AppleWebKit/537.36 (KHTML, like Gecko) Chrome/118.0.0.0 Safari/537.36" etag="9tptuAZeu4pasxrswdks" version="22.0.6" type="github">
  <diagram name="Página-1" id="8Idsf8GwS77Ush9iiKHb">
    <mxGraphModel dx="1434" dy="786" grid="1" gridSize="10" guides="1" tooltips="1" connect="1" arrows="1" fold="1" page="1" pageScale="1" pageWidth="827" pageHeight="1169" math="0" shadow="0">
      <root>
        <mxCell id="0" />
        <mxCell id="1" parent="0" />
        <mxCell id="Z1Z_4dMAcVMgifDe9oe8-4" style="edgeStyle=orthogonalEdgeStyle;rounded=0;orthogonalLoop=1;jettySize=auto;html=1;exitX=1;exitY=0.5;exitDx=0;exitDy=0;entryX=0;entryY=0.5;entryDx=0;entryDy=0;" parent="1" source="Z1Z_4dMAcVMgifDe9oe8-1" target="Z1Z_4dMAcVMgifDe9oe8-2" edge="1">
          <mxGeometry relative="1" as="geometry" />
        </mxCell>
        <mxCell id="Z1Z_4dMAcVMgifDe9oe8-1" value="Departamento" style="whiteSpace=wrap;html=1;aspect=fixed;" parent="1" vertex="1">
          <mxGeometry x="80" y="60" width="90" height="90" as="geometry" />
        </mxCell>
        <mxCell id="Z1Z_4dMAcVMgifDe9oe8-5" style="edgeStyle=orthogonalEdgeStyle;rounded=0;orthogonalLoop=1;jettySize=auto;html=1;exitX=1;exitY=0.5;exitDx=0;exitDy=0;entryX=0;entryY=0.5;entryDx=0;entryDy=0;" parent="1" source="Z1Z_4dMAcVMgifDe9oe8-2" target="Z1Z_4dMAcVMgifDe9oe8-3" edge="1">
          <mxGeometry relative="1" as="geometry" />
        </mxCell>
        <mxCell id="Z1Z_4dMAcVMgifDe9oe8-2" value="Aloca" style="rhombus;whiteSpace=wrap;html=1;" parent="1" vertex="1">
          <mxGeometry x="250" y="65" width="80" height="80" as="geometry" />
        </mxCell>
        <mxCell id="Z1Z_4dMAcVMgifDe9oe8-10" style="edgeStyle=orthogonalEdgeStyle;rounded=0;orthogonalLoop=1;jettySize=auto;html=1;entryX=0;entryY=0.5;entryDx=0;entryDy=0;" parent="1" source="Z1Z_4dMAcVMgifDe9oe8-3" target="Z1Z_4dMAcVMgifDe9oe8-9" edge="1">
          <mxGeometry relative="1" as="geometry" />
        </mxCell>
        <mxCell id="Z1Z_4dMAcVMgifDe9oe8-3" value="Funcionário" style="whiteSpace=wrap;html=1;aspect=fixed;" parent="1" vertex="1">
          <mxGeometry x="410" y="65" width="80" height="80" as="geometry" />
        </mxCell>
        <mxCell id="Z1Z_4dMAcVMgifDe9oe8-6" value="N" style="text;html=1;strokeColor=none;fillColor=none;align=center;verticalAlign=middle;whiteSpace=wrap;rounded=0;" parent="1" vertex="1">
          <mxGeometry x="360" y="80" width="60" height="30" as="geometry" />
        </mxCell>
        <mxCell id="Z1Z_4dMAcVMgifDe9oe8-7" value="1" style="text;html=1;strokeColor=none;fillColor=none;align=center;verticalAlign=middle;whiteSpace=wrap;rounded=0;" parent="1" vertex="1">
          <mxGeometry x="150" y="80" width="60" height="30" as="geometry" />
        </mxCell>
        <mxCell id="Z1Z_4dMAcVMgifDe9oe8-21" style="edgeStyle=orthogonalEdgeStyle;rounded=0;orthogonalLoop=1;jettySize=auto;html=1;" parent="1" source="Z1Z_4dMAcVMgifDe9oe8-8" target="Z1Z_4dMAcVMgifDe9oe8-20" edge="1">
          <mxGeometry relative="1" as="geometry" />
        </mxCell>
        <mxCell id="Z1Z_4dMAcVMgifDe9oe8-8" value="- Data de Início&lt;br&gt;- Horas Trabalhadas" style="whiteSpace=wrap;html=1;aspect=fixed;align=left;" parent="1" vertex="1">
          <mxGeometry x="730" y="45" width="120" height="120" as="geometry" />
        </mxCell>
        <mxCell id="Z1Z_4dMAcVMgifDe9oe8-11" style="edgeStyle=orthogonalEdgeStyle;rounded=0;orthogonalLoop=1;jettySize=auto;html=1;entryX=0;entryY=0.5;entryDx=0;entryDy=0;" parent="1" source="Z1Z_4dMAcVMgifDe9oe8-9" target="Z1Z_4dMAcVMgifDe9oe8-8" edge="1">
          <mxGeometry relative="1" as="geometry" />
        </mxCell>
        <mxCell id="Z1Z_4dMAcVMgifDe9oe8-9" value="Pertence" style="rhombus;whiteSpace=wrap;html=1;" parent="1" vertex="1">
          <mxGeometry x="570" y="65" width="80" height="80" as="geometry" />
        </mxCell>
        <mxCell id="Z1Z_4dMAcVMgifDe9oe8-12" value="N" style="text;html=1;strokeColor=none;fillColor=none;align=center;verticalAlign=middle;whiteSpace=wrap;rounded=0;" parent="1" vertex="1">
          <mxGeometry x="470" y="80" width="60" height="30" as="geometry" />
        </mxCell>
        <mxCell id="Z1Z_4dMAcVMgifDe9oe8-14" value="N" style="text;html=1;strokeColor=none;fillColor=none;align=center;verticalAlign=middle;whiteSpace=wrap;rounded=0;" parent="1" vertex="1">
          <mxGeometry x="680" y="80" width="60" height="30" as="geometry" />
        </mxCell>
        <mxCell id="Z1Z_4dMAcVMgifDe9oe8-15" value="Projeto" style="text;html=1;strokeColor=none;fillColor=none;align=center;verticalAlign=middle;whiteSpace=wrap;rounded=0;" parent="1" vertex="1">
          <mxGeometry x="760" y="45" width="60" height="30" as="geometry" />
        </mxCell>
        <mxCell id="Z1Z_4dMAcVMgifDe9oe8-16" value="Peça" style="whiteSpace=wrap;html=1;aspect=fixed;" parent="1" vertex="1">
          <mxGeometry x="410" y="410" width="80" height="80" as="geometry" />
        </mxCell>
        <mxCell id="Z1Z_4dMAcVMgifDe9oe8-24" style="edgeStyle=orthogonalEdgeStyle;rounded=0;orthogonalLoop=1;jettySize=auto;html=1;entryX=1;entryY=0.5;entryDx=0;entryDy=0;" parent="1" source="Z1Z_4dMAcVMgifDe9oe8-18" target="Z1Z_4dMAcVMgifDe9oe8-23" edge="1">
          <mxGeometry relative="1" as="geometry" />
        </mxCell>
        <mxCell id="Z1Z_4dMAcVMgifDe9oe8-18" value="Fornecedor" style="whiteSpace=wrap;html=1;aspect=fixed;" parent="1" vertex="1">
          <mxGeometry x="750" y="410" width="80" height="80" as="geometry" />
        </mxCell>
        <mxCell id="Z1Z_4dMAcVMgifDe9oe8-29" style="edgeStyle=orthogonalEdgeStyle;rounded=0;orthogonalLoop=1;jettySize=auto;html=1;entryX=0;entryY=0.5;entryDx=0;entryDy=0;" parent="1" source="Z1Z_4dMAcVMgifDe9oe8-19" target="Z1Z_4dMAcVMgifDe9oe8-28" edge="1">
          <mxGeometry relative="1" as="geometry" />
        </mxCell>
        <mxCell id="Z1Z_4dMAcVMgifDe9oe8-19" value="Depósito" style="whiteSpace=wrap;html=1;aspect=fixed;" parent="1" vertex="1">
          <mxGeometry x="85" y="410" width="80" height="80" as="geometry" />
        </mxCell>
        <mxCell id="Z1Z_4dMAcVMgifDe9oe8-22" style="edgeStyle=orthogonalEdgeStyle;rounded=0;orthogonalLoop=1;jettySize=auto;html=1;exitX=0.5;exitY=1;exitDx=0;exitDy=0;entryX=0.5;entryY=0;entryDx=0;entryDy=0;" parent="1" source="Z1Z_4dMAcVMgifDe9oe8-20" target="Z1Z_4dMAcVMgifDe9oe8-18" edge="1">
          <mxGeometry relative="1" as="geometry" />
        </mxCell>
        <mxCell id="Z1Z_4dMAcVMgifDe9oe8-26" style="edgeStyle=orthogonalEdgeStyle;rounded=0;orthogonalLoop=1;jettySize=auto;html=1;entryX=0.5;entryY=0;entryDx=0;entryDy=0;" parent="1" source="Z1Z_4dMAcVMgifDe9oe8-20" target="Z1Z_4dMAcVMgifDe9oe8-16" edge="1">
          <mxGeometry relative="1" as="geometry" />
        </mxCell>
        <mxCell id="Z1Z_4dMAcVMgifDe9oe8-20" value="Utiliza-se" style="rhombus;whiteSpace=wrap;html=1;" parent="1" vertex="1">
          <mxGeometry x="750" y="240" width="80" height="80" as="geometry" />
        </mxCell>
        <mxCell id="Z1Z_4dMAcVMgifDe9oe8-25" style="edgeStyle=orthogonalEdgeStyle;rounded=0;orthogonalLoop=1;jettySize=auto;html=1;entryX=1;entryY=0.5;entryDx=0;entryDy=0;" parent="1" source="Z1Z_4dMAcVMgifDe9oe8-23" target="Z1Z_4dMAcVMgifDe9oe8-16" edge="1">
          <mxGeometry relative="1" as="geometry" />
        </mxCell>
        <mxCell id="Z1Z_4dMAcVMgifDe9oe8-23" value="Fornece" style="rhombus;whiteSpace=wrap;html=1;" parent="1" vertex="1">
          <mxGeometry x="580" y="410" width="80" height="80" as="geometry" />
        </mxCell>
        <mxCell id="Z1Z_4dMAcVMgifDe9oe8-31" style="edgeStyle=orthogonalEdgeStyle;rounded=0;orthogonalLoop=1;jettySize=auto;html=1;entryX=0;entryY=0.5;entryDx=0;entryDy=0;" parent="1" source="Z1Z_4dMAcVMgifDe9oe8-28" target="Z1Z_4dMAcVMgifDe9oe8-16" edge="1">
          <mxGeometry relative="1" as="geometry" />
        </mxCell>
        <mxCell id="Z1Z_4dMAcVMgifDe9oe8-28" value="Contém" style="rhombus;whiteSpace=wrap;html=1;" parent="1" vertex="1">
          <mxGeometry x="250" y="410" width="80" height="80" as="geometry" />
        </mxCell>
        <mxCell id="Z1Z_4dMAcVMgifDe9oe8-32" value="N" style="text;html=1;strokeColor=none;fillColor=none;align=center;verticalAlign=middle;whiteSpace=wrap;rounded=0;" parent="1" vertex="1">
          <mxGeometry x="780" y="160" width="60" height="30" as="geometry" />
        </mxCell>
        <mxCell id="Z1Z_4dMAcVMgifDe9oe8-33" value="N" style="text;html=1;strokeColor=none;fillColor=none;align=center;verticalAlign=middle;whiteSpace=wrap;rounded=0;" parent="1" vertex="1">
          <mxGeometry x="780" y="380" width="60" height="30" as="geometry" />
        </mxCell>
        <mxCell id="Z1Z_4dMAcVMgifDe9oe8-36" value="N" style="text;html=1;strokeColor=none;fillColor=none;align=center;verticalAlign=middle;whiteSpace=wrap;rounded=0;" parent="1" vertex="1">
          <mxGeometry x="400" y="380" width="60" height="30" as="geometry" />
        </mxCell>
        <mxCell id="Z1Z_4dMAcVMgifDe9oe8-37" value="N" style="text;html=1;strokeColor=none;fillColor=none;align=center;verticalAlign=middle;whiteSpace=wrap;rounded=0;" parent="1" vertex="1">
          <mxGeometry x="700" y="420" width="60" height="30" as="geometry" />
        </mxCell>
        <mxCell id="Z1Z_4dMAcVMgifDe9oe8-38" value="N" style="text;html=1;strokeColor=none;fillColor=none;align=center;verticalAlign=middle;whiteSpace=wrap;rounded=0;" parent="1" vertex="1">
          <mxGeometry x="480" y="420" width="60" height="30" as="geometry" />
        </mxCell>
        <mxCell id="Z1Z_4dMAcVMgifDe9oe8-39" value="N" style="text;html=1;strokeColor=none;fillColor=none;align=center;verticalAlign=middle;whiteSpace=wrap;rounded=0;" parent="1" vertex="1">
          <mxGeometry x="150" y="420" width="60" height="30" as="geometry" />
        </mxCell>
        <mxCell id="Z1Z_4dMAcVMgifDe9oe8-40" value="N" style="text;html=1;strokeColor=none;fillColor=none;align=center;verticalAlign=middle;whiteSpace=wrap;rounded=0;" parent="1" vertex="1">
          <mxGeometry x="360" y="420" width="60" height="30" as="geometry" />
        </mxCell>
      </root>
    </mxGraphModel>
  </diagram>
</mxfile>
